<mxfile host="app.diagrams.net" modified="2021-08-18T04:03:09.594Z" agent="5.0 (X11; Linux x86_64) AppleWebKit/537.36 (KHTML, like Gecko) Chrome/91.0.4449.0 Safari/537.36 Edg/91.0.838.3" etag="y8JT1pQqKEhdIRPxEWcz" version="14.9.7" type="github">
  <diagram id="vve-mcMHb81JYddghBKt" name="Page-1">
    <mxGraphModel dx="2272" dy="801" grid="1" gridSize="10" guides="1" tooltips="1" connect="1" arrows="1" fold="1" page="1" pageScale="1" pageWidth="850" pageHeight="1100" math="0" shadow="0">
      <root>
        <mxCell id="0" />
        <mxCell id="1" parent="0" />
        <mxCell id="QNlfi4VLN62x59zA77za-63" value="" style="rounded=0;whiteSpace=wrap;html=1;glass=0;sketch=0;gradientDirection=east;fillColor=#f5f5f5;strokeColor=#666666;fontColor=#333333;" vertex="1" parent="1">
          <mxGeometry x="-40" y="80" width="800" height="840" as="geometry" />
        </mxCell>
        <mxCell id="QNlfi4VLN62x59zA77za-64" value="" style="rounded=0;whiteSpace=wrap;html=1;glass=0;sketch=0;fillColor=#ffe6cc;gradientDirection=east;strokeColor=#d79b00;" vertex="1" parent="1">
          <mxGeometry x="840" y="80" width="200" height="840" as="geometry" />
        </mxCell>
        <mxCell id="QNlfi4VLN62x59zA77za-1" value="" style="rounded=0;whiteSpace=wrap;html=1;fillColor=#d5e8d4;strokeColor=#82b366;" vertex="1" parent="1">
          <mxGeometry x="280" y="200" width="320" height="40" as="geometry" />
        </mxCell>
        <mxCell id="QNlfi4VLN62x59zA77za-2" value="&lt;font style=&quot;font-size: 14px&quot;&gt;&amp;lt;&amp;lt;&amp;lt;1, 48&amp;gt;&amp;gt;&amp;gt;&lt;/font&gt;" style="text;html=1;fillColor=none;align=center;verticalAlign=middle;whiteSpace=wrap;rounded=0;strokeColor=#000000;" vertex="1" parent="1">
          <mxGeometry x="880" y="280" width="120" height="40" as="geometry" />
        </mxCell>
        <mxCell id="QNlfi4VLN62x59zA77za-3" value="" style="rounded=0;whiteSpace=wrap;html=1;fillColor=#d5e8d4;strokeColor=#82b366;" vertex="1" parent="1">
          <mxGeometry x="120" y="200" width="160" height="40" as="geometry" />
        </mxCell>
        <mxCell id="QNlfi4VLN62x59zA77za-5" value="0" style="text;html=1;strokeColor=none;fillColor=none;align=center;verticalAlign=middle;whiteSpace=wrap;rounded=0;" vertex="1" parent="1">
          <mxGeometry x="580" y="180" width="20" height="20" as="geometry" />
        </mxCell>
        <mxCell id="QNlfi4VLN62x59zA77za-6" value="47" style="text;html=1;strokeColor=none;fillColor=none;align=center;verticalAlign=middle;whiteSpace=wrap;rounded=0;" vertex="1" parent="1">
          <mxGeometry x="120" y="180" width="20" height="20" as="geometry" />
        </mxCell>
        <mxCell id="QNlfi4VLN62x59zA77za-7" value="32" style="text;html=1;strokeColor=none;fillColor=none;align=center;verticalAlign=middle;whiteSpace=wrap;rounded=0;" vertex="1" parent="1">
          <mxGeometry x="260" y="180" width="20" height="20" as="geometry" />
        </mxCell>
        <mxCell id="QNlfi4VLN62x59zA77za-8" value="31" style="text;html=1;strokeColor=none;fillColor=none;align=center;verticalAlign=middle;whiteSpace=wrap;rounded=0;" vertex="1" parent="1">
          <mxGeometry x="280" y="180" width="20" height="20" as="geometry" />
        </mxCell>
        <mxCell id="QNlfi4VLN62x59zA77za-9" value="" style="rounded=0;whiteSpace=wrap;html=1;fillColor=#d5e8d4;strokeColor=#82b366;" vertex="1" parent="1">
          <mxGeometry x="280" y="360" width="320" height="40" as="geometry" />
        </mxCell>
        <mxCell id="QNlfi4VLN62x59zA77za-10" value="" style="rounded=0;whiteSpace=wrap;html=1;fillColor=#d5e8d4;strokeColor=#82b366;" vertex="1" parent="1">
          <mxGeometry x="120" y="360" width="160" height="40" as="geometry" />
        </mxCell>
        <mxCell id="QNlfi4VLN62x59zA77za-11" value="63" style="text;html=1;strokeColor=none;fillColor=none;align=center;verticalAlign=middle;whiteSpace=wrap;rounded=0;" vertex="1" parent="1">
          <mxGeometry y="340" width="20" height="20" as="geometry" />
        </mxCell>
        <mxCell id="QNlfi4VLN62x59zA77za-12" value="&lt;font color=&quot;#ea6b66&quot;&gt;&lt;b&gt;&lt;i&gt;无效lane，无法访问&lt;/i&gt;&lt;/b&gt;&lt;/font&gt;" style="rounded=0;whiteSpace=wrap;html=1;fillColor=#e1d5e7;strokeColor=#9673a6;" vertex="1" parent="1">
          <mxGeometry y="360" width="120" height="40" as="geometry" />
        </mxCell>
        <mxCell id="QNlfi4VLN62x59zA77za-13" value="0" style="text;html=1;strokeColor=none;fillColor=none;align=center;verticalAlign=middle;whiteSpace=wrap;rounded=0;" vertex="1" parent="1">
          <mxGeometry x="580" y="340" width="20" height="20" as="geometry" />
        </mxCell>
        <mxCell id="QNlfi4VLN62x59zA77za-14" value="31" style="text;html=1;strokeColor=none;fillColor=none;align=center;verticalAlign=middle;whiteSpace=wrap;rounded=0;" vertex="1" parent="1">
          <mxGeometry x="280" y="340" width="20" height="20" as="geometry" />
        </mxCell>
        <mxCell id="QNlfi4VLN62x59zA77za-15" value="32" style="text;html=1;strokeColor=none;fillColor=none;align=center;verticalAlign=middle;whiteSpace=wrap;rounded=0;" vertex="1" parent="1">
          <mxGeometry x="260" y="340" width="20" height="20" as="geometry" />
        </mxCell>
        <mxCell id="QNlfi4VLN62x59zA77za-16" value="47" style="text;html=1;strokeColor=none;fillColor=none;align=center;verticalAlign=middle;whiteSpace=wrap;rounded=0;" vertex="1" parent="1">
          <mxGeometry x="120" y="340" width="20" height="20" as="geometry" />
        </mxCell>
        <mxCell id="QNlfi4VLN62x59zA77za-17" value="48" style="text;html=1;strokeColor=none;fillColor=none;align=center;verticalAlign=middle;whiteSpace=wrap;rounded=0;" vertex="1" parent="1">
          <mxGeometry x="100" y="340" width="20" height="20" as="geometry" />
        </mxCell>
        <mxCell id="QNlfi4VLN62x59zA77za-19" value="&lt;font style=&quot;font-size: 14px&quot;&gt;&lt;i&gt;&lt;b&gt;warp1&lt;br&gt;__activemask() -&amp;gt; 0x0000ffff&lt;br&gt;&lt;/b&gt;&lt;/i&gt;&lt;/font&gt;" style="text;html=1;strokeColor=none;fillColor=none;align=center;verticalAlign=middle;whiteSpace=wrap;rounded=0;" vertex="1" parent="1">
          <mxGeometry x="40" y="280" width="200" height="40" as="geometry" />
        </mxCell>
        <mxCell id="QNlfi4VLN62x59zA77za-20" value="&lt;font style=&quot;font-size: 14px&quot;&gt;&lt;i&gt;&lt;b&gt;warp0&lt;br&gt;__activemask() -&amp;gt; 0xffffffff&lt;br&gt;&lt;/b&gt;&lt;/i&gt;&lt;/font&gt;" style="text;html=1;strokeColor=none;fillColor=none;align=center;verticalAlign=middle;whiteSpace=wrap;rounded=0;" vertex="1" parent="1">
          <mxGeometry x="320" y="280" width="240" height="40" as="geometry" />
        </mxCell>
        <mxCell id="QNlfi4VLN62x59zA77za-21" value="" style="rounded=0;whiteSpace=wrap;html=1;fillColor=#d5e8d4;strokeColor=#82b366;" vertex="1" parent="1">
          <mxGeometry x="520" y="640" width="80" height="40" as="geometry" />
        </mxCell>
        <mxCell id="QNlfi4VLN62x59zA77za-22" value="" style="rounded=0;whiteSpace=wrap;html=1;fillColor=#d5e8d4;strokeColor=#82b366;" vertex="1" parent="1">
          <mxGeometry x="200" y="640" width="80" height="40" as="geometry" />
        </mxCell>
        <mxCell id="QNlfi4VLN62x59zA77za-23" value="63" style="text;html=1;strokeColor=none;fillColor=none;align=center;verticalAlign=middle;whiteSpace=wrap;rounded=0;" vertex="1" parent="1">
          <mxGeometry y="620" width="20" height="20" as="geometry" />
        </mxCell>
        <mxCell id="QNlfi4VLN62x59zA77za-24" value="&lt;font color=&quot;#ea6b66&quot;&gt;&lt;b&gt;&lt;i&gt;无效lane，无法访问&lt;/i&gt;&lt;/b&gt;&lt;/font&gt;" style="rounded=0;whiteSpace=wrap;html=1;fillColor=#e1d5e7;strokeColor=#9673a6;" vertex="1" parent="1">
          <mxGeometry y="640" width="120" height="40" as="geometry" />
        </mxCell>
        <mxCell id="QNlfi4VLN62x59zA77za-25" value="0" style="text;html=1;strokeColor=none;fillColor=none;align=center;verticalAlign=middle;whiteSpace=wrap;rounded=0;" vertex="1" parent="1">
          <mxGeometry x="580" y="620" width="20" height="20" as="geometry" />
        </mxCell>
        <mxCell id="QNlfi4VLN62x59zA77za-26" value="31" style="text;html=1;strokeColor=none;fillColor=none;align=center;verticalAlign=middle;whiteSpace=wrap;rounded=0;" vertex="1" parent="1">
          <mxGeometry x="280" y="620" width="20" height="20" as="geometry" />
        </mxCell>
        <mxCell id="QNlfi4VLN62x59zA77za-27" value="32" style="text;html=1;strokeColor=none;fillColor=none;align=center;verticalAlign=middle;whiteSpace=wrap;rounded=0;" vertex="1" parent="1">
          <mxGeometry x="260" y="620" width="20" height="20" as="geometry" />
        </mxCell>
        <mxCell id="QNlfi4VLN62x59zA77za-28" value="47" style="text;html=1;strokeColor=none;fillColor=none;align=center;verticalAlign=middle;whiteSpace=wrap;rounded=0;" vertex="1" parent="1">
          <mxGeometry x="120" y="620" width="20" height="20" as="geometry" />
        </mxCell>
        <mxCell id="QNlfi4VLN62x59zA77za-29" value="48" style="text;html=1;strokeColor=none;fillColor=none;align=center;verticalAlign=middle;whiteSpace=wrap;rounded=0;" vertex="1" parent="1">
          <mxGeometry x="100" y="620" width="20" height="20" as="geometry" />
        </mxCell>
        <mxCell id="QNlfi4VLN62x59zA77za-32" value="" style="rounded=0;whiteSpace=wrap;html=1;gradientDirection=east;sketch=0;glass=0;fillColor=#CCCCCC;strokeColor=none;" vertex="1" parent="1">
          <mxGeometry x="280" y="640" width="240" height="40" as="geometry" />
        </mxCell>
        <mxCell id="QNlfi4VLN62x59zA77za-34" value="" style="rounded=0;whiteSpace=wrap;html=1;gradientDirection=east;sketch=0;glass=0;fillColor=#CCCCCC;strokeColor=none;" vertex="1" parent="1">
          <mxGeometry x="120" y="640" width="80" height="40" as="geometry" />
        </mxCell>
        <mxCell id="QNlfi4VLN62x59zA77za-35" value="40" style="text;html=1;strokeColor=none;fillColor=none;align=center;verticalAlign=middle;whiteSpace=wrap;rounded=0;" vertex="1" parent="1">
          <mxGeometry x="180" y="620" width="20" height="20" as="geometry" />
        </mxCell>
        <mxCell id="QNlfi4VLN62x59zA77za-36" value="39" style="text;html=1;strokeColor=none;fillColor=none;align=center;verticalAlign=middle;whiteSpace=wrap;rounded=0;" vertex="1" parent="1">
          <mxGeometry x="200" y="620" width="20" height="20" as="geometry" />
        </mxCell>
        <mxCell id="QNlfi4VLN62x59zA77za-37" value="7" style="text;html=1;strokeColor=none;fillColor=none;align=center;verticalAlign=middle;whiteSpace=wrap;rounded=0;" vertex="1" parent="1">
          <mxGeometry x="520" y="620" width="20" height="20" as="geometry" />
        </mxCell>
        <mxCell id="QNlfi4VLN62x59zA77za-38" value="8" style="text;html=1;strokeColor=none;fillColor=none;align=center;verticalAlign=middle;whiteSpace=wrap;rounded=0;" vertex="1" parent="1">
          <mxGeometry x="500" y="620" width="20" height="20" as="geometry" />
        </mxCell>
        <mxCell id="QNlfi4VLN62x59zA77za-39" value="" style="rounded=0;whiteSpace=wrap;html=1;strokeColor=#82b366;fillColor=#CCCCCC;" vertex="1" parent="1">
          <mxGeometry x="520" y="840" width="80" height="40" as="geometry" />
        </mxCell>
        <mxCell id="QNlfi4VLN62x59zA77za-40" value="" style="rounded=0;whiteSpace=wrap;html=1;strokeColor=#82b366;fillColor=#CCCCCC;" vertex="1" parent="1">
          <mxGeometry x="200" y="840" width="80" height="40" as="geometry" />
        </mxCell>
        <mxCell id="QNlfi4VLN62x59zA77za-41" value="63" style="text;html=1;strokeColor=none;fillColor=none;align=center;verticalAlign=middle;whiteSpace=wrap;rounded=0;" vertex="1" parent="1">
          <mxGeometry y="820" width="20" height="20" as="geometry" />
        </mxCell>
        <mxCell id="QNlfi4VLN62x59zA77za-42" value="&lt;font color=&quot;#ea6b66&quot;&gt;&lt;b&gt;&lt;i&gt;无效lane，无法访问&lt;/i&gt;&lt;/b&gt;&lt;/font&gt;" style="rounded=0;whiteSpace=wrap;html=1;fillColor=#e1d5e7;strokeColor=#9673a6;" vertex="1" parent="1">
          <mxGeometry y="840" width="120" height="40" as="geometry" />
        </mxCell>
        <mxCell id="QNlfi4VLN62x59zA77za-43" value="0" style="text;html=1;strokeColor=none;fillColor=none;align=center;verticalAlign=middle;whiteSpace=wrap;rounded=0;" vertex="1" parent="1">
          <mxGeometry x="580" y="820" width="20" height="20" as="geometry" />
        </mxCell>
        <mxCell id="QNlfi4VLN62x59zA77za-44" value="31" style="text;html=1;strokeColor=none;fillColor=none;align=center;verticalAlign=middle;whiteSpace=wrap;rounded=0;" vertex="1" parent="1">
          <mxGeometry x="280" y="820" width="20" height="20" as="geometry" />
        </mxCell>
        <mxCell id="QNlfi4VLN62x59zA77za-45" value="32" style="text;html=1;strokeColor=none;fillColor=none;align=center;verticalAlign=middle;whiteSpace=wrap;rounded=0;" vertex="1" parent="1">
          <mxGeometry x="260" y="820" width="20" height="20" as="geometry" />
        </mxCell>
        <mxCell id="QNlfi4VLN62x59zA77za-46" value="47" style="text;html=1;strokeColor=none;fillColor=none;align=center;verticalAlign=middle;whiteSpace=wrap;rounded=0;" vertex="1" parent="1">
          <mxGeometry x="120" y="820" width="20" height="20" as="geometry" />
        </mxCell>
        <mxCell id="QNlfi4VLN62x59zA77za-47" value="48" style="text;html=1;strokeColor=none;fillColor=none;align=center;verticalAlign=middle;whiteSpace=wrap;rounded=0;" vertex="1" parent="1">
          <mxGeometry x="100" y="820" width="20" height="20" as="geometry" />
        </mxCell>
        <mxCell id="QNlfi4VLN62x59zA77za-50" value="" style="rounded=0;whiteSpace=wrap;html=1;gradientDirection=east;sketch=0;glass=0;fillColor=#d5e8d4;strokeColor=#82b366;" vertex="1" parent="1">
          <mxGeometry x="280" y="840" width="240" height="40" as="geometry" />
        </mxCell>
        <mxCell id="QNlfi4VLN62x59zA77za-51" value="" style="rounded=0;whiteSpace=wrap;html=1;gradientDirection=east;sketch=0;glass=0;fillColor=#d5e8d4;strokeColor=#82b366;" vertex="1" parent="1">
          <mxGeometry x="120" y="840" width="80" height="40" as="geometry" />
        </mxCell>
        <mxCell id="QNlfi4VLN62x59zA77za-52" value="40" style="text;html=1;strokeColor=none;fillColor=none;align=center;verticalAlign=middle;whiteSpace=wrap;rounded=0;" vertex="1" parent="1">
          <mxGeometry x="180" y="820" width="20" height="20" as="geometry" />
        </mxCell>
        <mxCell id="QNlfi4VLN62x59zA77za-53" value="39" style="text;html=1;strokeColor=none;fillColor=none;align=center;verticalAlign=middle;whiteSpace=wrap;rounded=0;" vertex="1" parent="1">
          <mxGeometry x="200" y="820" width="20" height="20" as="geometry" />
        </mxCell>
        <mxCell id="QNlfi4VLN62x59zA77za-54" value="7" style="text;html=1;strokeColor=none;fillColor=none;align=center;verticalAlign=middle;whiteSpace=wrap;rounded=0;" vertex="1" parent="1">
          <mxGeometry x="520" y="820" width="20" height="20" as="geometry" />
        </mxCell>
        <mxCell id="QNlfi4VLN62x59zA77za-55" value="8" style="text;html=1;strokeColor=none;fillColor=none;align=center;verticalAlign=middle;whiteSpace=wrap;rounded=0;" vertex="1" parent="1">
          <mxGeometry x="500" y="820" width="20" height="20" as="geometry" />
        </mxCell>
        <mxCell id="QNlfi4VLN62x59zA77za-57" value="&lt;font style=&quot;font-size: 14px&quot;&gt;if ( (tid%warpSize) &amp;lt;=7)&lt;/font&gt;" style="text;html=1;fillColor=none;align=center;verticalAlign=middle;whiteSpace=wrap;rounded=0;glass=1;sketch=0;strokeColor=#000000;" vertex="1" parent="1">
          <mxGeometry x="860" y="650" width="160" height="20" as="geometry" />
        </mxCell>
        <mxCell id="QNlfi4VLN62x59zA77za-58" value="&lt;font style=&quot;font-size: 14px&quot;&gt;else&lt;/font&gt;" style="text;html=1;fillColor=none;align=center;verticalAlign=middle;whiteSpace=wrap;rounded=0;glass=1;sketch=0;strokeColor=#000000;" vertex="1" parent="1">
          <mxGeometry x="860" y="850" width="160" height="20" as="geometry" />
        </mxCell>
        <mxCell id="QNlfi4VLN62x59zA77za-59" value="&lt;font style=&quot;font-size: 14px&quot;&gt;&lt;i&gt;&lt;b&gt;warp1&lt;br&gt;__activemask() -&amp;gt; 0x000000ff&lt;br&gt;&lt;/b&gt;&lt;/i&gt;&lt;/font&gt;" style="text;html=1;strokeColor=none;fillColor=none;align=center;verticalAlign=middle;whiteSpace=wrap;rounded=0;" vertex="1" parent="1">
          <mxGeometry x="40" y="560" width="200" height="40" as="geometry" />
        </mxCell>
        <mxCell id="QNlfi4VLN62x59zA77za-60" value="&lt;font style=&quot;font-size: 14px&quot;&gt;&lt;i&gt;&lt;b&gt;warp0&lt;br&gt;__activemask() -&amp;gt; 0x000000ff&lt;br&gt;&lt;/b&gt;&lt;/i&gt;&lt;/font&gt;" style="text;html=1;strokeColor=none;fillColor=none;align=center;verticalAlign=middle;whiteSpace=wrap;rounded=0;" vertex="1" parent="1">
          <mxGeometry x="320" y="560" width="200" height="40" as="geometry" />
        </mxCell>
        <mxCell id="QNlfi4VLN62x59zA77za-61" value="&lt;font style=&quot;font-size: 14px&quot;&gt;&lt;i&gt;&lt;b&gt;warp1&lt;br&gt;__activemask() -&amp;gt; 0x000000f0&lt;br&gt;&lt;/b&gt;&lt;/i&gt;&lt;/font&gt;" style="text;html=1;strokeColor=none;fillColor=none;align=center;verticalAlign=middle;whiteSpace=wrap;rounded=0;" vertex="1" parent="1">
          <mxGeometry x="40" y="760" width="200" height="40" as="geometry" />
        </mxCell>
        <mxCell id="QNlfi4VLN62x59zA77za-62" value="&lt;font style=&quot;font-size: 14px&quot;&gt;&lt;i&gt;&lt;b&gt;warp0&lt;br&gt;__activemask() -&amp;gt; 0x000000f0&lt;br&gt;&lt;/b&gt;&lt;/i&gt;&lt;/font&gt;" style="text;html=1;strokeColor=none;fillColor=none;align=center;verticalAlign=middle;whiteSpace=wrap;rounded=0;" vertex="1" parent="1">
          <mxGeometry x="320" y="760" width="200" height="40" as="geometry" />
        </mxCell>
        <mxCell id="QNlfi4VLN62x59zA77za-65" value="GPU逻辑" style="text;html=1;strokeColor=none;fillColor=none;align=center;verticalAlign=middle;whiteSpace=wrap;rounded=0;glass=0;sketch=0;" vertex="1" parent="1">
          <mxGeometry x="280" y="90" width="80" height="20" as="geometry" />
        </mxCell>
        <mxCell id="QNlfi4VLN62x59zA77za-66" value="GPU代码" style="text;html=1;strokeColor=none;fillColor=none;align=center;verticalAlign=middle;whiteSpace=wrap;rounded=0;glass=0;sketch=0;" vertex="1" parent="1">
          <mxGeometry x="900" y="90" width="80" height="20" as="geometry" />
        </mxCell>
        <mxCell id="QNlfi4VLN62x59zA77za-69" value="" style="endArrow=classic;html=1;exitX=0;exitY=0.5;exitDx=0;exitDy=0;" edge="1" parent="1" source="QNlfi4VLN62x59zA77za-2">
          <mxGeometry width="50" height="50" relative="1" as="geometry">
            <mxPoint x="710" y="330" as="sourcePoint" />
            <mxPoint x="800" y="300" as="targetPoint" />
          </mxGeometry>
        </mxCell>
        <mxCell id="QNlfi4VLN62x59zA77za-70" value="" style="shape=curlyBracket;whiteSpace=wrap;html=1;rounded=1;flipH=1;glass=0;sketch=0;strokeColor=#000000;fillColor=none;gradientColor=none;gradientDirection=east;" vertex="1" parent="1">
          <mxGeometry x="770" y="160" width="30" height="280" as="geometry" />
        </mxCell>
        <mxCell id="QNlfi4VLN62x59zA77za-72" value="" style="endArrow=classic;html=1;" edge="1" parent="1" source="QNlfi4VLN62x59zA77za-64">
          <mxGeometry width="50" height="50" relative="1" as="geometry">
            <mxPoint x="790" y="570" as="sourcePoint" />
            <mxPoint x="840" y="520" as="targetPoint" />
          </mxGeometry>
        </mxCell>
        <mxCell id="QNlfi4VLN62x59zA77za-78" value="" style="shape=curlyBracket;whiteSpace=wrap;html=1;rounded=1;flipH=1;glass=0;sketch=0;strokeColor=#000000;fillColor=none;gradientColor=none;gradientDirection=east;" vertex="1" parent="1">
          <mxGeometry x="760" y="600" width="30" height="300" as="geometry" />
        </mxCell>
        <mxCell id="QNlfi4VLN62x59zA77za-79" value="&lt;b&gt;&lt;font style=&quot;font-size: 16px&quot; color=&quot;#ea6b66&quot;&gt;&lt;i&gt;无分支状态&lt;/i&gt;&lt;/font&gt;&lt;/b&gt;" style="text;html=1;strokeColor=none;fillColor=none;align=center;verticalAlign=middle;whiteSpace=wrap;rounded=0;glass=0;sketch=0;" vertex="1" parent="1">
          <mxGeometry x="620" y="280" width="110" height="40" as="geometry" />
        </mxCell>
        <mxCell id="QNlfi4VLN62x59zA77za-80" value="&lt;b&gt;&lt;font style=&quot;font-size: 16px&quot; color=&quot;#ea6b66&quot;&gt;&lt;i&gt;有分支状态&lt;/i&gt;&lt;/font&gt;&lt;/b&gt;" style="text;html=1;strokeColor=none;fillColor=none;align=center;verticalAlign=middle;whiteSpace=wrap;rounded=0;glass=0;sketch=0;" vertex="1" parent="1">
          <mxGeometry x="620" y="730" width="110" height="40" as="geometry" />
        </mxCell>
        <mxCell id="QNlfi4VLN62x59zA77za-81" value="" style="endArrow=classic;html=1;exitX=0;exitY=0.5;exitDx=0;exitDy=0;entryX=0.25;entryY=0.2;entryDx=0;entryDy=0;entryPerimeter=0;" edge="1" parent="1" source="QNlfi4VLN62x59zA77za-57" target="QNlfi4VLN62x59zA77za-78">
          <mxGeometry width="50" height="50" relative="1" as="geometry">
            <mxPoint x="790" y="640" as="sourcePoint" />
            <mxPoint x="840" y="590" as="targetPoint" />
          </mxGeometry>
        </mxCell>
        <mxCell id="QNlfi4VLN62x59zA77za-82" value="" style="endArrow=classic;html=1;exitX=0;exitY=0.5;exitDx=0;exitDy=0;entryX=0.25;entryY=0.2;entryDx=0;entryDy=0;entryPerimeter=0;" edge="1" parent="1">
          <mxGeometry width="50" height="50" relative="1" as="geometry">
            <mxPoint x="860" y="859.5" as="sourcePoint" />
            <mxPoint x="782.5" y="859.5" as="targetPoint" />
          </mxGeometry>
        </mxCell>
      </root>
    </mxGraphModel>
  </diagram>
</mxfile>
